<svg width="18" height="19" viewBox="0 0 18 19" fill="none" xmlns="http://www.w3.org/2000/svg">
<path d="M16.6112 3.125H1.48622C1.30388 3.125 1.12902 3.19743 1.00009 3.32636C0.871154 3.4553 0.798721 3.63016 0.798721 3.8125C0.798721 3.99484 0.871154 4.1697 1.00009 4.29864C1.12902 4.42757 1.30388 4.5 1.48622 4.5H2.17372V16.875C2.17372 17.2397 2.31859 17.5894 2.57645 17.8473C2.83431 18.1051 3.18405 18.25 3.54872 18.25H14.5487C14.9134 18.25 15.2631 18.1051 15.521 17.8473C15.7789 17.5894 15.9237 17.2397 15.9237 16.875V4.5H16.6112C16.7936 4.5 16.9684 4.42757 17.0974 4.29864C17.2263 4.1697 17.2987 3.99484 17.2987 3.8125C17.2987 3.63016 17.2263 3.4553 17.0974 3.32636C16.9684 3.19743 16.7936 3.125 16.6112 3.125ZM14.5487 16.875H3.54872V4.5H14.5487V16.875ZM4.92372 1.0625C4.92372 0.880164 4.99615 0.705295 5.12509 0.576364C5.25402 0.447433 5.42888 0.375 5.61122 0.375H12.4862C12.6686 0.375 12.8434 0.447433 12.9724 0.576364C13.1013 0.705295 13.1737 0.880164 13.1737 1.0625C13.1737 1.24484 13.1013 1.4197 12.9724 1.54864C12.8434 1.67757 12.6686 1.75 12.4862 1.75H5.61122C5.42888 1.75 5.25402 1.67757 5.12509 1.54864C4.99615 1.4197 4.92372 1.24484 4.92372 1.0625Z" fill="#9E78CF"/>
</svg>
